<?xml version="1.0" encoding="utf-8"?>
<!-- Generator: Adobe Illustrator 24.0.3, SVG Export Plug-In . SVG Version: 6.00 Build 0)  -->
<svg version="1.1" id="Ebene_1" xmlns="http://www.w3.org/2000/svg" xmlns:xlink="http://www.w3.org/1999/xlink" x="0px" y="0px"
	 viewBox="0 0 100 100" style="enable-background:new 0 0 100 100;" xml:space="preserve">
<style type="text/css">
	.st0{fill:#FFFFFF;stroke:#000000;stroke-width:0.75;stroke-miterlimit:10;}
	.st1{fill:#FFFFFF;stroke:#CC3333;stroke-width:0.75;stroke-miterlimit:10;}
	.st2{fill:#336699;}
	.st3{fill:#FFFFFF;stroke:#CC3333;stroke-width:3;stroke-miterlimit:10;}
	.st4{fill:#FFFFFF;stroke:#CC3333;stroke-miterlimit:10;}
	.st5{fill:#FFFFFF;stroke:#CC3333;stroke-width:0.5;stroke-miterlimit:10;}
	.st6{fill:#FFFFFF;stroke:#000000;stroke-miterlimit:10;}
	.st7{fill:#CC3333;stroke:#000000;stroke-miterlimit:10;}
	.st8{fill:#CC3333;}
</style>
<circle class="st0" cx="50" cy="50" r="49.3"/>
<path class="st1" d="M71.3,94c4.3-3.1,4.7-4.8,4.2-5.8c-0.8-1.5-4-2.1-3.9-3.3c0.1-0.7,1.3-0.7,1.8-1.9c0.6-1.2,0-2.7-0.7-2.8
	c-0.6-0.1-1,0.7-1.4,0.6c-0.3-0.1-0.2-1.1,0.1-2.2"/>
<ellipse class="st2" cx="72.4" cy="50" rx="22.4" ry="25"/>
<ellipse cx="79.5" cy="50" rx="7.1" ry="8.3"/>
<path class="st3" d="M16.4,57.2c0.1-1.4,0.6-4.1,2.8-6.5c0.9-1,3.1-3.3,5.6-3.2c1.7,0.1,2.6,1.3,3.2,0.9c1.1-0.6-1.2-3.9,0.4-5.4
	c1-0.9,3-0.8,3.7-0.7c2.1,0.2,3.2,1.2,3.9,0.7c0.8-0.5,0.1-2.2,0.2-2.2c0.3-0.1,1.3,6.2,4.1,6.9c1.3,0.3,3.3-0.4,6.9-4.7"/>
<path class="st4" d="M16.7,84.9c7.4-1.4,10.2-3.2,11.4-4.6c1.9-2.1,0.8-4.4,2.7-5.7c1.2-0.8,1.9-0.2,4-1.3c2.2-1.1,4.1-3.1,3.9-3.6
	c-0.2-0.4-1.7,0.3-1.8,0c0-0.3,1.5-1.3,3.4-2.5"/>
<path class="st4" d="M32.8,6.5c-3.5,5.6-5,10.7-3.5,12.2c1.5,1.5,6.2,0.1,9.1-1.5c1.8-1,3.3-2.4,3.6-2c0.3,0.3-0.6,1.4-1.4,3.5
	c-0.7,1.9-1.5,4.9-0.9,5.3c0.9,0.6,4-4.6,5.5-3.8c1.1,0.6,0,3.4,1.7,5c1.2,1.1,3.7,1.3,3.7,1.3l0,0c0.8,1.4,1.6,2.9,2.4,4.3"/>
<path class="st5" d="M64.4,3.3C64.9,3.8,65,4.4,64.8,5c-0.4,1-1.5,1.1-1.6,1.1c0,0,0,0,0,0c-0.2,0-0.3,0-0.3,0c-0.1,0,0,0.5,0.5,2.4
	"/>
<path class="st1" d="M41,93.7c3.8-1,4.8-1.9,4.8-2.7c0.1-0.8-0.8-1.1-0.7-2.1c0.1-1.2,1.5-1.2,2.1-2.7c0.5-1.3-0.3-2.1,0.3-3
	c0.4-0.6,1.3-1.1,3.7-0.9"/>
<path class="st6" d="M17.3,15.8"/>
<path class="st7" d="M168.8-4"/>
<path class="st8" d="M16.9,49.9C16.9,25.7,34,5.6,56.5,1.7c-2.6-0.5-5.3-0.7-8-0.7C22.2,1,0.9,22.9,0.9,49.9c0,27,21.3,49,47.6,49
	c2.7,0,5.4-0.3,8-0.7C34,94.2,16.9,74.1,16.9,49.9z"/>
<path class="st5" d="M41.8,16.4c6.4-1.8,8.2-1.5,8.5-0.8c0.5,1-1.7,3.2-1.3,3.6c0.4,0.3,1.8-1.2,3.6-1c1.1,0.1,2,0.7,2.6,1.3"/>
<path class="st1" d="M35.1,73.5c-2.2-3.6-2.2-5.3-1.6-6.2c0.7-0.9,1.9-0.7,2.6-1.8c0.8-1.2,0.4-2.9-0.3-4.4"/>
</svg>
